<?xml version="1.0" standalone="no"?>
<!DOCTYPE svg PUBLIC "-//W3C//DTD SVG 20010904//EN"
 "http://www.w3.org/TR/2001/REC-SVG-20010904/DTD/svg10.dtd">
<svg version="1.0" xmlns="http://www.w3.org/2000/svg"
 width="512.000000pt" height="512.000000pt" viewBox="0 0 512.000000 512.000000"
 preserveAspectRatio="xMidYMid meet">

<g transform="translate(0.000000,512.000000) scale(0.100000,-0.100000)"
fill="#000000" stroke="none">
<path d="M1811 4510 c-48 -11 -83 -40 -108 -90 -21 -40 -23 -58 -23 -195 0
-137 2 -155 23 -195 62 -122 215 -127 295 -10 21 31 22 43 22 202 0 106 -4
178 -11 191 -39 75 -119 114 -198 97z"/>
<path d="M600 4008 c-77 -39 -112 -116 -90 -198 9 -34 34 -65 113 -147 115
-118 154 -143 225 -143 116 0 195 122 152 236 -6 15 -57 75 -113 132 -140 143
-195 166 -287 120z"/>
<path d="M2998 3889 c-161 -16 -321 -92 -444 -211 l-71 -68 -78 45 c-43 24
-117 58 -164 75 -156 57 -201 64 -391 64 -157 0 -185 -3 -271 -26 -205 -55
-374 -152 -519 -298 -327 -326 -420 -816 -237 -1239 103 -237 302 -445 534
-558 l94 -46 -6 -71 c-15 -159 35 -371 121 -516 91 -153 216 -266 379 -345
106 -51 178 -71 306 -85 129 -13 1926 -13 2059 0 324 34 592 223 725 513 78
170 100 398 55 572 -24 93 -82 219 -138 302 -77 114 -236 243 -372 303 -30 13
-57 25 -59 27 -2 1 9 23 24 48 44 75 74 180 85 293 11 117 3 195 -31 301 -102
322 -424 546 -757 529 l-84 -5 -40 61 c-159 236 -434 364 -720 335z m-940
-459 c349 -99 586 -421 570 -774 -4 -89 -5 -94 -43 -146 -22 -29 -52 -74 -67
-98 l-26 -45 -164 -2 c-136 -1 -175 -5 -238 -24 -189 -56 -358 -175 -474 -331
-22 -30 -41 -56 -42 -58 -3 -6 -128 60 -164 87 -116 85 -203 188 -259 305
-114 237 -103 498 30 733 46 81 198 231 282 278 78 43 180 81 258 94 83 15
253 6 337 -19z m1356 -946 c90 -23 173 -71 243 -141 65 -65 88 -102 138 -222
53 -130 126 -164 263 -122 155 47 302 32 436 -43 193 -109 303 -338 266 -556
-36 -211 -208 -391 -417 -435 -102 -22 -2025 -22 -2128 0 -105 22 -188 68
-266 145 -207 207 -212 538 -10 748 148 154 343 203 561 141 83 -24 121 -24
170 1 46 24 70 56 99 135 63 172 187 291 359 346 72 23 203 24 286 3z"/>
<path d="M105 2834 c-67 -35 -97 -83 -97 -154 0 -72 41 -135 105 -159 43 -16
330 -14 370 3 72 30 117 121 97 196 -13 49 -54 99 -97 116 -49 21 -338 19
-378 -2z"/>
<path d="M773 1826 c-37 -17 -170 -141 -224 -209 -49 -62 -59 -117 -31 -179
37 -84 124 -125 208 -98 42 14 244 202 270 252 18 35 18 121 -1 158 -8 16 -31
41 -51 56 -43 33 -122 42 -171 20z"/>
</g>
</svg>
